<?xml version="1.0" standalone="no"?>
<!DOCTYPE svg PUBLIC "-//W3C//DTD SVG 20010904//EN"
 "http://www.w3.org/TR/2001/REC-SVG-20010904/DTD/svg10.dtd">
<svg version="1.0" xmlns="http://www.w3.org/2000/svg"
 width="53.000000pt" height="55.000000pt" viewBox="0 0 53.000000 55.000000"
 preserveAspectRatio="xMidYMid meet">

<g transform="translate(0.000000,55.000000) scale(0.100000,-0.100000)"
fill="#000000" stroke="none">
<path d="M164 486 c-28 -13 -63 -39 -78 -58 -31 -41 -33 -52 -8 -39 13 7 23 6
30 -1 9 -9 11 -6 8 9 -4 16 0 20 14 16 15 -4 18 -1 13 19 -3 16 -2 19 5 10 5
-8 13 -14 17 -14 4 0 12 6 16 14 5 8 9 9 9 2 0 -6 -7 -17 -15 -24 -13 -11 -13
-15 -3 -22 8 -6 3 -7 -16 -3 -24 5 -27 4 -19 -7 11 -13 10 -30 -2 -60 -4 -10
-3 -18 3 -18 5 0 13 11 16 24 17 67 126 91 190 42 l36 -27 45 20 c25 11 45 22
45 25 0 3 -14 21 -31 41 -30 34 -77 62 -109 64 -8 1 -37 4 -65 7 -39 4 -61 -1
-101 -20z m176 -10 c0 -3 -4 -8 -10 -11 -5 -3 -10 -1 -10 4 0 6 5 11 10 11 6
0 10 -2 10 -4z m-45 -24 c-3 -3 -11 0 -18 7 -9 10 -8 11 6 5 10 -3 15 -9 12
-12z m-48 -14 c2 -16 -1 -19 -6 -10 -6 11 -12 10 -25 -4 -17 -16 -17 -16 -14
2 3 16 19 31 38 33 3 1 7 -9 7 -21z m177 -28 c-6 -5 -24 21 -24 34 0 6 6 1 14
-10 8 -10 12 -21 10 -24z"/>
<path d="M41 339 c-21 -60 -11 -99 19 -78 12 8 12 12 2 16 -10 4 -10 8 0 21
11 13 11 14 0 8 -10 -6 -9 1 2 28 12 30 13 36 1 36 -7 0 -18 -14 -24 -31z"/>
<path d="M130 293 c-2 -7 -4 -17 -5 -23 -1 -5 -3 -13 -4 -17 -1 -5 -8 1 -16
11 -8 11 -15 14 -15 8 0 -7 -11 -17 -25 -22 -31 -12 -31 -24 -2 -74 31 -55 83
-93 152 -111 54 -14 65 -14 113 0 57 17 132 76 132 105 0 11 -15 23 -42 33
-41 16 -42 16 -67 -6 -14 -12 -27 -24 -28 -27 -5 -9 -97 1 -121 13 -24 11 -48
50 -63 97 -4 14 -8 19 -9 13z m-31 -50 c-3 -19 2 -27 10 -15 7 11 9 11 14 0 7
-20 -26 -39 -44 -26 -11 8 -10 9 4 4 12 -4 17 -2 14 6 -2 7 -11 12 -21 10 -19
-3 -22 14 -3 21 19 8 27 8 26 0z m315 -81 c2 -4 1 -14 -3 -21 -6 -9 -11 -10
-15 -2 -4 6 -1 11 6 11 9 0 9 3 -2 10 -9 6 -10 10 -3 10 6 0 14 -4 17 -8z"/>
</g>
</svg>
